#!OML:ASF H:\Punching\Project 1\Capture day 1\Session 1\female.ASF
:FULLY-SPECIFIED
:DEGREES
2748
root 0.479682 14.8911 2.85377 -6.89337 -26.2586 -2.20702
lowerback 0.385982 0.935605 8.39885
upperback -1.40914 1.31146 -2.99527
thorax -1.42861 0.532826 -7.89733
lowerneck -8.27161 6.83465 12.7736
upperneck 41.5264 9.41672 -5.91449
head 17.7618 4.99362 -3.42972
rclavicle 3.27995e-014 -1.66979e-014
rhumerus 10.3462 23.1845 -62.1536
rradius 125.437
rwrist -16.7674
rhand -29.0406 8.9974
rfingers 7.12502
rthumb -2.39087 -20.969
lclavicle 3.27995e-014 -1.66979e-014
lhumerus -10.1443 -17.5426 64.7302
lradius 140.422
lwrist 1.37776
lhand -27.5012 4.95317
lfingers 7.12502
lthumb -0.904152 34.931
rfemur -15.886 10.2119 30.7297
rtibia 43.2612
rfoot -14.8762 -6.61729
rtoes 8.47197
lfemur -79.6883 9.58567 -21.5831
ltibia 124.451
lfoot 30.5414 -4.01769
ltoes 0.239864
2749
root 0.449731 14.8936 2.92995 -8.26055 -27.1185 -1.8789
lowerback 0.794068 1.1172 8.48669
upperback -0.881054 1.57594 -3.16706
thorax -1.04733 0.704316 -8.13589
lowerneck -7.94971 6.89121 12.8736
upperneck 41.5982 9.50226 -5.87558
head 17.741 5.05362 -3.42492
rclavicle -5.48646e-014 -1.03368e-014
rhumerus 10.6655 24.0236 -62.7773
rradius 125.437
rwrist -16.4172
rhand -29.0603 9.07487
rfingers 7.12502
rthumb -2.40997 -20.8913
lclavicle -5.48646e-014 -1.03368e-014
lhumerus -9.82921 -17.5584 64.7862
lradius 140.538
lwrist 1.1256
lhand -27.4565 5.00015
lfingers 7.12502
lthumb -0.860993 34.9782
rfemur -13.9402 10.5401 30.8485
rtibia 42.8445
rfoot -15.1324 -6.51241
rtoes 8.63914
lfemur -81.9932 9.17474 -21.6884
ltibia 123.273
lfoot 31.2608 -3.64645
ltoes 0.408866
2750
root 0.418781 14.8981 3.00674 -9.63924 -27.9401 -1.47161
lowerback 1.14843 1.28003 8.51246
upperback -0.368532 1.81079 -3.34723
thorax -0.656776 0.862435 -8.34683
lowerneck -7.6336 6.96267 12.9822
upperneck 41.6728 9.61336 -5.84746
head 17.7294 5.1238 -3.42207
rclavicle 3.26007e-014 -1.59028e-015
rhumerus 10.9862 24.8989 -63.4118
rradius 125.42
rwrist -16.0919
rhand -29.0903 9.15874
rfingers 7.12502
rthumb -2.43889 -20.8071
lclavicle 3.26007e-014 -1.59028e-015
lhumerus -9.53512 -17.5791 64.8346
lradius 140.674
lwrist 0.887565
lhand -27.4319 5.05731
lfingers 7.12502
lthumb -0.837262 35.0354
rfemur -12.0319 10.8568 30.9033
rtibia 42.4386
rfoot -15.372 -6.39048
rtoes 8.79421
lfemur -84.0147 8.78484 -21.6717
ltibia 121.681
lfoot 31.9222 -3.21985
ltoes 0.554622
2751
root 0.387007 14.8972 3.08558 -11.0109 -28.7152 -0.997625
lowerback 1.44256 1.42317 8.49209
upperback 0.119335 2.01464 -3.53748
thorax -0.263571 1.00507 -8.54086
lowerneck -7.31044 7.04961 13.1015
upperneck 41.7455 9.75236 -5.83114
head 17.7215 5.20558 -3.42187
rclavicle -4.77083e-015 0
rhumerus 11.2958 25.808 -64.0687
rradius 125.394
rwrist -15.8389
rhand -29.1154 9.26937
rfingers 7.12502
rthumb -2.46317 -20.6962
lclavicle -4.77083e-015 0
lhumerus -9.26593 -17.6028 64.8671
lradius 140.832
lwrist 0.701239
lhand -27.422 5.10644
lfingers 7.12502
lthumb -0.827626 35.0846
rfemur -10.192 11.1613 30.9035
rtibia 42.0591
rfoot -15.5897 -6.25178
rtoes 8.9477
lfemur -85.8274 8.41324 -21.5414
ltibia 119.744
lfoot 32.6044 -2.66798
ltoes 0.797475
2752
root 0.355041 14.9078 3.16163 -12.3509 -29.4496 -0.493176
lowerback 1.68189 1.54853 8.45995
upperback 0.573151 2.1914 -3.73073
thorax 0.120547 1.13281 -8.73049
lowerneck -6.97396 7.14976 13.2344
upperneck 41.8189 9.91856 -5.83234
head 17.7182 5.29863 -3.42799
rclavicle -4.37326e-015 3.97569e-014
rhumerus 11.5754 26.7423 -64.7587
rradius 125.377
rwrist -15.7001
rhand -29.0992 9.36733
rfingers 7.12502
rthumb -2.44755 -20.5984
lclavicle -4.37326e-015 3.97569e-014
lhumerus -9.03534 -17.6518 64.8893
lradius 141.025
lwrist 0.574571
lhand -27.4335 5.21468
lfingers 7.12502
lthumb -0.838728 35.1928
rfemur -8.38895 11.4652 30.8765
rtibia 41.6403
rfoot -15.7582 -6.10061
rtoes 9.09859
lfemur -87.2535 8.11685 -21.2715
ltibia 117.357
lfoot 33.2647 -2.00588
ltoes 1.15605
2753
root 0.323012 14.92 3.23672 -13.6372 -30.1581 -0.00231299
lowerback 1.87422 1.6578 8.46115
upperback 0.987566 2.34496 -3.91897
thorax 0.487766 1.24712 -8.93376
lowerneck -6.61023 7.26248 13.3781
upperneck 41.892 10.1126 -5.8486
head 17.715 5.40339 -3.43915
rclavicle 7.79236e-014 -3.02153e-014
rhumerus 11.8148 27.7023 -65.4955
rradius 125.363
rwrist -15.6626
rhand -29.0391 9.47873
rfingers 7.12502
rthumb -2.38944 -20.4876
lclavicle 7.79236e-014 -3.02153e-014
lhumerus -8.84192 -17.7057 64.8936
lradius 141.24
lwrist 0.512865
lhand -27.4466 5.2917
lfingers 7.12502
lthumb -0.851451 35.2697
rfemur -6.63719 11.7743 30.87
rtibia 41.196
rfoot -15.8812 -5.94752
rtoes 9.24742
lfemur -88.3919 7.89638 -20.8359
ltibia 114.602
lfoot 33.9482 -1.23284
ltoes 1.68604
